ffmpeg started on 2025-09-05 at 17:51:36
Report written to "ffmpeg_stream.log"
Log level: 32
Command line:
ffmpeg -hide_banner -nostdin -re -stream_loop -1 -i videos/6.mp4 -c:v libx264 -preset ultrafast -tune zerolatency -profile:v baseline -level:v 3.1 -pix_fmt yuv420p -g 48 -c:a aac -ar 44100 -b:a 128k -f rtsp -rtsp_transport tcp rtsp://admin:admin123@192.168.1.111:8554/Streaming/Channels/101
Input #0, mov,mp4,m4a,3gp,3g2,mj2, from 'videos/6.mp4':
  Metadata:
    major_brand     : isom
    minor_version   : 512
    compatible_brands: isomiso2avc1mp41
    encoder         : Google
  Duration: 00:00:08.00, start: 0.000000, bitrate: 4218 kb/s
  Stream #0:0[0x1](und): Video: h264 (High) (avc1 / 0x31637661), yuv420p(progressive), 1280x720, 4064 kb/s, 24 fps, 24 tbr, 12288 tbn (default)
      Metadata:
        handler_name    : VideoHandler
        vendor_id       : [0][0][0][0]
  Stream #0:1[0x2](und): Audio: aac (LC) (mp4a / 0x6134706D), 48000 Hz, stereo, fltp, 140 kb/s (default)
      Metadata:
        handler_name    : SoundHandler
        vendor_id       : [0][0][0][0]
Stream mapping:
  Stream #0:0 -> #0:0 (h264 (native) -> h264 (libx264))
  Stream #0:1 -> #0:1 (aac (native) -> aac (native))
[libx264 @ 0x156f251f0] using cpu capabilities: ARMv8 NEON
[libx264 @ 0x156f251f0] profile Constrained Baseline, level 3.1, 4:2:0, 8-bit
[libx264 @ 0x156f251f0] 264 - core 164 r3108 31e19f9 - H.264/MPEG-4 AVC codec - Copyleft 2003-2023 - http://www.videolan.org/x264.html - options: cabac=0 ref=1 deblock=0:0:0 analyse=0:0 me=dia subme=0 psy=1 psy_rd=1.00:0.00 mixed_ref=0 me_range=16 chroma_me=1 trellis=0 8x8dct=0 cqm=0 deadzone=21,11 fast_pskip=1 chroma_qp_offset=0 threads=8 lookahead_threads=8 sliced_threads=1 slices=8 nr=0 decimate=1 interlaced=0 bluray_compat=0 constrained_intra=0 bframes=0 weightp=0 keyint=48 keyint_min=4 scenecut=0 intra_refresh=0 rc=crf mbtree=0 crf=23.0 qcomp=0.60 qpmin=0 qpmax=69 qpstep=4 ip_ratio=1.40 aq=0
Output #0, rtsp, to 'rtsp://admin:admin123@192.168.1.111:8554/Streaming/Channels/101':
  Metadata:
    major_brand     : isom
    minor_version   : 512
    compatible_brands: isomiso2avc1mp41
    encoder         : Lavf61.7.100
  Stream #0:0(und): Video: h264, yuv420p(tv, progressive), 1280x720, q=2-31, 24 fps, 90k tbn (default)
      Metadata:
        handler_name    : VideoHandler
        vendor_id       : [0][0][0][0]
        encoder         : Lavc61.19.101 libx264
      Side data:
        cpb: bitrate max/min/avg: 0/0/0 buffer size: 0 vbv_delay: N/A
  Stream #0:1(und): Audio: aac (LC), 44100 Hz, stereo, fltp, 128 kb/s (default)
      Metadata:
        handler_name    : SoundHandler
        vendor_id       : [0][0][0][0]
        encoder         : Lavc61.19.101 aac
frame=   16 fps=0.0 q=23.0 size=N/A time=00:00:00.66 bitrate=N/A speed=1.32x    frame=   29 fps= 29 q=23.0 size=N/A time=00:00:01.20 bitrate=N/A speed= 1.2x    frame=   41 fps= 27 q=23.0 size=N/A time=00:00:01.70 bitrate=N/A speed=1.13x    frame=   53 fps= 26 q=24.0 size=N/A time=00:00:02.20 bitrate=N/A speed=1.09x    frame=   65 fps= 26 q=25.0 size=N/A time=00:00:02.70 bitrate=N/A speed=1.07x    frame=   77 fps= 25 q=24.0 size=N/A time=00:00:03.20 bitrate=N/A speed=1.06x    frame=   89 fps= 25 q=26.0 size=N/A time=00:00:03.70 bitrate=N/A speed=1.05x    frame=  101 fps= 25 q=25.0 size=N/A time=00:00:04.20 bitrate=N/A speed=1.04x    frame=  113 fps= 25 q=24.0 size=N/A time=00:00:04.70 bitrate=N/A speed=1.04x    frame=  125 fps= 25 q=26.0 size=N/A time=00:00:05.20 bitrate=N/A speed=1.03x    [vost#0:0/libx264 @ 0x156f24d90] Error submitting a packet to the muxer: Broken pipe
[vost#0:0/libx264 @ 0x156f24d90] Error submitting a packet to the muxer: Broken pipe
[out#0/rtsp @ 0x156f24480] Error muxing a packet
[out#0/rtsp @ 0x156f24480] Task finished with error code: -32 (Broken pipe)
[out#0/rtsp @ 0x156f24480] Terminating thread with return code -32 (Broken pipe)
[out#0/rtsp @ 0x156f24480] Error writing trailer: Broken pipe
[out#0/rtsp @ 0x156f24480] video:5879KiB audio:91KiB subtitle:0KiB other streams:0KiB global headers:0KiB muxing overhead: unknown
frame=  130 fps= 25 q=23.0 Lsize=N/A time=00:00:05.41 bitrate=N/A dup=1 drop=0 speed=1.03x    
[libx264 @ 0x156f251f0] frame I:3     Avg QP:20.67  size:228786
[libx264 @ 0x156f251f0] frame P:138   Avg QP:24.46  size: 42386
[libx264 @ 0x156f251f0] mb I  I16..4: 100.0%  0.0%  0.0%
[libx264 @ 0x156f251f0] mb P  I16..4:  2.0%  0.0%  0.0%  P16..4: 66.0%  0.0%  0.0%  0.0%  0.0%    skip:32.0%
[libx264 @ 0x156f251f0] coded y,uvDC,uvAC intra: 73.1% 67.5% 48.9% inter: 48.2% 26.1% 8.0%
[libx264 @ 0x156f251f0] i16 v,h,dc,p: 28% 37% 21% 13%
[libx264 @ 0x156f251f0] i8c dc,h,v,p: 40% 31% 21%  9%
[libx264 @ 0x156f251f0] kb/s:8899.59
[aac @ 0x158056ba0] Qavg: 963.565
Conversion failed!
:05.41 bitrate=N/A dup=1 drop=0 speed=1.03x    
[libx264 @ 0x156f251f0] frame I:3     Avg QP:20.67  size:228786
[libx264 @ 0x156f251f0] frame P:138   Avg QP:24.46  size: 42386
[libx264 @ 0x156f251f0] mb I  I16..4: 100.0%  0.0%  0.0%
[libx264 @ 0x156f251f0] mb P  I16..4:  2.0%  0.0%  0.0%  P16..4: 66.0%  0.0%  0.0%  0.0%  0.0%    skip:32.0%
[libx264 @ 0x156f251f0] coded y,uvDC,uvAC intra: 73.1% 67.5% 48.9% inter: 48.2% 26.1% 8.0%
[libx264 @ 0x156f251f0] i16 v,h,dc,p: 28% 37% 21% 13%
[libx264 @ 0x156f251f0] i8c dc,h,v,p: 40% 31% 21%  9%
[libx264 @ 0x156f251f0] kb/s:8899.59
[aac @ 0x158056ba0] Qavg: 963.565
Conversion failed!
